<?xml version="1.0" standalone="no"?>
<!DOCTYPE svg PUBLIC "-//W3C//DTD SVG 1.1//EN" "http://www.w3.org/Graphics/SVG/1.1/DTD/svg11.dtd" >
<svg xmlns="http://www.w3.org/2000/svg" xmlns:xlink="http://www.w3.org/1999/xlink" version="1.1">
<metadata></metadata>
<defs>
<font id="exosemibold" horiz-adv-x="1247" >
<font-face units-per-em="2048" ascent="1638" descent="-410" />
<missing-glyph horiz-adv-x="536" />
<glyph unicode="&#xfb01;" horiz-adv-x="1314" d="M29 893v164l159 41v127q0 190 76 270t248 80q156 0 258 -33v-182q-94 8 -174 8q-88 0 -121 -42t-33 -136v-92h742v-1098h-254v893h-488v-893h-254v893h-159zM924 1309v186q0 18 10 29.5t29 11.5h192q19 0 28 -11.5t9 -29.5v-186q0 -37 -37 -37h-192q-16 0 -27.5 10 t-11.5 27z" />
<glyph unicode="&#xfb02;" horiz-adv-x="1427" d="M29 893v164l159 41v104q0 203 102.5 288t330.5 85q285 0 563 -51v-1131q0 -104 30.5 -146t98.5 -52l92 -13v-182h-150q-166 0 -245.5 85t-79.5 271v1006q-137 6 -273 6q-121 0 -168 -42t-47 -136v-92h301v-205h-301v-893h-254v893h-159z" />
<glyph horiz-adv-x="0" />
<glyph unicode="&#xd;" horiz-adv-x="536" />
<glyph unicode=" "  horiz-adv-x="536" />
<glyph unicode="&#x09;" horiz-adv-x="536" />
<glyph unicode="&#xa0;" horiz-adv-x="536" />
<glyph unicode="!" horiz-adv-x="552" d="M147 1509h254l-36 -1095h-187zM160 35v194q0 39 39 39h145q39 0 39 -39v-194q0 -37 -39 -37h-145q-17 0 -28 10t-11 27z" />
<glyph unicode="&#x22;" horiz-adv-x="735" d="M74 1401v137h243v-137l-16 -375h-207zM406 1401v137h243v-137l-16 -375h-207z" />
<glyph unicode="#" horiz-adv-x="1454" d="M37 440l26 168h326l47 279h-330l27 168h336l80 444h168l-78 -444h262l78 444h168l-76 -444h350l-24 -168h-353l-47 -279h353l-23 -168h-369l-75 -440h-170l78 440h-265l-77 -440h-168l75 440h-319zM559 608h268l47 279h-270z" />
<glyph unicode="$" d="M104 1032v78q0 203 107.5 303t318.5 111l-10 86l129 78l17 -127l-64 -37q102 -2 217 -15.5t205 -31.5v-199q-276 18 -420 18q-129 0 -193.5 -42t-64.5 -154v-51q0 -92 50 -133.5t153 -41.5h158q190 0 289.5 -103t99.5 -273v-97q0 -217 -111 -308t-319 -103v-172h-146v172 q-104 4 -215.5 15t-185.5 28v198q184 -16 456 -16q137 0 208 39t71 141v72q0 80 -45 123t-133 43h-141q-215 0 -323 94t-108 305z" />
<glyph unicode="%" horiz-adv-x="1970" d="M78 983v248q0 137 62.5 202.5t211.5 65.5h207q145 0 208.5 -66.5t63.5 -201.5v-248q0 -135 -63 -201.5t-213 -66.5h-207q-145 0 -207.5 66.5t-62.5 201.5zM242 1020q0 -76 29.5 -108.5t107.5 -32.5h147q80 0 111 31.5t31 109.5v176q0 78 -30 108.5t-108 30.5h-147 q-74 0 -107.5 -28.5t-33.5 -110.5v-176zM436 0l916 1499h168l-910 -1499h-174zM1141 274v248q0 137 62.5 203t211.5 66h209q145 0 208.5 -67t63.5 -202v-248q0 -135 -63.5 -201.5t-212.5 -66.5h-209q-145 0 -207.5 66.5t-62.5 201.5zM1305 311q0 -76 29.5 -108.5 t107.5 -32.5h145q80 0 113 31.5t33 109.5v176q0 78 -32 109t-110 31h-145q-74 0 -107.5 -29t-33.5 -111v-176z" />
<glyph unicode="&#x26;" horiz-adv-x="1411" d="M76 391q0 227 188 385l127 109l-31 47q-59 86 -78.5 151.5t-19.5 133.5q0 152 102.5 221t270.5 69q217 0 381 -39v-184h-334q-166 0 -166 -123q0 -41 22.5 -89t75.5 -120l328 -448l297 272l94 -112l-141 -203l-125 -121l256 -340h-264l-154 197l-71 -66 q-88 -78 -172 -109.5t-189 -31.5q-115 0 -205 50t-141 141t-51 210zM317 420q0 -88 54.5 -143.5t144.5 -55.5q53 0 100.5 20.5t100.5 69.5l55 56l-258 344l-88 -78q-59 -51 -84 -102.5t-25 -110.5z" />
<glyph unicode="'" horiz-adv-x="403" d="M74 1401v137h243v-137l-16 -375h-207z" />
<glyph unicode="(" horiz-adv-x="763" d="M135 668q0 330 98.5 595t264.5 498h229q-158 -264 -248 -527t-90 -566q0 -307 84 -559t254 -539h-229q-172 233 -267.5 492.5t-95.5 605.5z" />
<glyph unicode=")" horiz-adv-x="761" d="M37 -430q160 266 248 527t88 569q0 309 -82 559t-254 536h227q174 -233 268.5 -491t94.5 -604q0 -334 -96.5 -597.5t-266.5 -498.5h-227z" />
<glyph unicode="*" horiz-adv-x="899" d="M92 1182v96l287 25l6 -134zM217 848l57 280l132 -32l-99 -277zM362 1479l93 30l129 -256l-125 -49zM414 971l71 114l238 -178l-57 -76zM516 1153l238 168l55 -78l-207 -194z" />
<glyph unicode="+" d="M164 627v204h356v357h205v-357h356v-204h-356v-357h-205v357h-356z" />
<glyph unicode="," horiz-adv-x="454" d="M117 57v168q0 43 39 43h143q39 0 39 -43v-270q0 -129 -133 -129q-27 0 -51.5 4t-30.5 6v80q29 0 40 8t11 31v61h-18q-16 0 -27.5 11.5t-11.5 29.5z" />
<glyph unicode="-" horiz-adv-x="710" d="M47 492v204h619v-204h-619z" />
<glyph unicode="." horiz-adv-x="454" d="M117 35v194q0 39 39 39h145q39 0 39 -39v-194q0 -37 -39 -37h-145q-17 0 -28 10t-11 27z" />
<glyph unicode="/" horiz-adv-x="903" d="M37 -147l575 1724h254l-575 -1724h-254z" />
<glyph unicode="0" horiz-adv-x="1331" d="M127 373v760q0 188 104.5 289.5t286.5 101.5h309q186 0 280.5 -102.5t94.5 -288.5v-760q0 -186 -99 -283.5t-278 -97.5h-309q-184 0 -286.5 97t-102.5 284zM381 410q0 -94 50 -141.5t144 -47.5h185q190 0 190 189v698q0 188 -180 188h-203q-90 0 -138 -48t-48 -140v-698z " />
<glyph unicode="1" horiz-adv-x="755" d="M72 1231v162l311 133h227v-1526h-254v1282z" />
<glyph unicode="2" horiz-adv-x="1206" d="M100 0v205l525 514q104 100 150 182t46 180t-58 150.5t-202 52.5h-420v199q133 18 240.5 29.5t230.5 11.5q252 0 357.5 -102.5t105.5 -301.5q0 -150 -60.5 -267.5t-193.5 -248.5l-383 -375h686v-229h-1024z" />
<glyph unicode="3" horiz-adv-x="1189" d="M82 25v202h475q135 0 199.5 37t64.5 135v76q0 88 -61.5 129t-159.5 45l-377 17v192l367 19q104 4 158.5 39.5t54.5 113.5v70q0 94 -62.5 139t-195.5 45h-424v203q291 41 524 37q199 -2 304.5 -96.5t105.5 -270.5v-117q0 -117 -57.5 -185.5t-143.5 -92.5 q88 -25 155.5 -109t67.5 -211v-88q0 -176 -112.5 -271t-315.5 -95q-319 0 -567 37z" />
<glyph unicode="4" horiz-adv-x="1249" d="M49 469l518 1042h260l-479 -952h432v334l51 162h201v-496h174v-174l-174 -41v-342h-252v342h-682z" />
<glyph unicode="5" horiz-adv-x="1261" d="M139 18v199h531q115 0 173 56.5t58 142.5v127q0 86 -47 133t-143 47h-133q-76 0 -118 -33t-54 -100h-240l43 921h891v-227h-672l-20 -428q31 37 88 59.5t133 22.5h170q172 0 264 -97.5t92 -252.5v-223q0 -375 -496 -375q-248 -1 -520 28z" />
<glyph unicode="6" horiz-adv-x="1255" d="M119 743q0 416 141 598.5t418 182.5q213 0 381 -29v-199h-363q-324 0 -323 -436q131 31 368 31q213 0 310.5 -84t97.5 -252v-215q0 -180 -98.5 -264t-266.5 -84h-225q-149 0 -244.5 65.5t-145.5 229.5t-50 456zM373 676q0 -178 25.5 -277.5t76.5 -139.5t133 -40h121 q80 0 124 39t44 129v121q0 98 -52 133t-171 35h-301z" />
<glyph unicode="7" horiz-adv-x="1126" d="M53 1260v251h942l70 -112l-518 -1399h-285l477 1260h-686z" />
<glyph unicode="8" horiz-adv-x="1296" d="M135 311v211q0 92 51.5 161t126.5 85q-88 43 -117.5 107.5t-29.5 158.5v174q0 162 95 239t251 77h285q154 0 245 -76t91 -240v-174q0 -74 -36 -149.5t-106 -91.5q90 -20 130 -96t40 -167v-219q0 -174 -96 -246.5t-264 -72.5h-277q-389 0 -389 319zM389 356 q0 -78 45 -112.5t131 -34.5h178q90 0 127 36t37 111v154q0 80 -40 117t-128 37h-174q-68 0 -122 -39t-54 -115v-154zM414 1036q0 -80 35.5 -117.5t115.5 -37.5h172q147 0 148 155v113q0 90 -35 125t-107 35h-178q-82 0 -116.5 -36t-34.5 -124v-113z" />
<glyph unicode="9" horiz-adv-x="1255" d="M109 961v215q0 178 99 262t267 84h225q150 0 245 -65.5t145.5 -229.5t50.5 -457q0 -416 -141.5 -598t-417.5 -182q-211 -1 -383 28v199h362q326 0 326 436q-131 -31 -369 -30q-213 0 -311 84t-98 254zM362 1006q0 -98 52.5 -132t171.5 -34h301q0 178 -25.5 277.5t-76 138 t-134.5 38.5h-121q-82 0 -125 -37.5t-43 -130.5v-120z" />
<glyph unicode=":" horiz-adv-x="454" d="M117 35v194q0 39 39 39h145q39 0 39 -39v-194q0 -37 -39 -37h-145q-17 0 -28 10t-11 27zM117 866v194q0 39 39 39h145q39 0 39 -39v-194q0 -37 -39 -37h-145q-17 0 -28 10t-11 27z" />
<glyph unicode=";" horiz-adv-x="454" d="M117 57v168q0 43 39 43h143q39 0 39 -43v-270q0 -129 -133 -129q-27 0 -51.5 4t-30.5 6v80q29 0 40 8t11 31v61h-18q-16 0 -27.5 11.5t-11.5 29.5zM117 866v194q0 39 39 39h145q39 0 39 -39v-194q0 -37 -39 -37h-145q-17 0 -28 10t-11 27z" />
<glyph unicode="&#x3c;" d="M197 604v225l850 271v-221l-605 -160l605 -172v-221z" />
<glyph unicode="=" d="M164 381v204h917v-204h-917zM164 873v204h917v-204h-917z" />
<glyph unicode="&#x3e;" d="M201 326v221l604 172l-604 160v221l850 -271v-225z" />
<glyph unicode="?" horiz-adv-x="1085" d="M88 1214v185q193 115 440 114q211 0 316.5 -109.5t105.5 -301.5v-129q0 -190 -106.5 -283.5t-331.5 -93.5v-184h-193v376h127q133 0 192.5 41t59.5 148v86q0 119 -60 171t-187 52q-90 0 -175.5 -17.5t-187.5 -54.5zM303 35v194q0 39 39 39h145q39 0 39 -39v-194 q0 -37 -39 -37h-145q-16 0 -27.5 10t-11.5 27z" />
<glyph unicode="@" horiz-adv-x="1800" d="M119 74v616q0 170 95 289t333 119h377q164 0 263 -65.5t99 -256.5v-727h-156l-34 119q-2 -2 -97.5 -69.5t-257.5 -67.5q-125 0 -193.5 82t-68.5 194v84q0 131 79 199.5t222 68.5h312v101q0 78 -41 111.5t-123 33.5h-381q-111 0 -172.5 -50t-61.5 -177v-580 q0 -141 70 -203.5t164 -62.5h653q135 0 194.5 67.5t59.5 198.5v928q0 131 -66.5 206t-187.5 75h-815v153q78 16 259 28.5t368 12.5h188q190 0 318.5 -115.5t128.5 -359.5v-928q0 -231 -107.5 -345.5t-327.5 -114.5h-665q-191 0 -309.5 106t-118.5 330zM686 344q0 -57 34 -88 t101 -31q66 0 147 28t124 66v205l-269 -16q-66 -4 -101.5 -24.5t-35.5 -86.5v-53z" />
<glyph unicode="A" horiz-adv-x="1394" d="M47 0l492 1511h319l492 -1511h-265l-116 358h-547l-115 -358h-260zM481 586h426l-213 708z" />
<glyph unicode="B" horiz-adv-x="1267" d="M141 0v1511h578q418 0 418 -393q0 -133 -58.5 -220t-154.5 -112q109 -27 185.5 -117.5t76.5 -250.5q0 -225 -110.5 -321.5t-332.5 -96.5h-602zM393 227h342q102 0 155.5 54.5t53.5 179.5q0 100 -58.5 157.5t-150.5 57.5h-342v-449zM393 872h330q78 0 125 57.5t47 153.5 q0 201 -178 201h-324v-412z" />
<glyph unicode="C" horiz-adv-x="1196" d="M102 762q0 301 61.5 468t180.5 231.5t307 64.5q123 0 247 -19.5t212 -46.5v-194q-61 12 -175 22t-233 10q-135 0 -207.5 -42t-105.5 -156.5t-33 -341.5t31 -342t102.5 -158t210.5 -43q233 0 410 23v-195q-186 -55 -465 -55q-192 0 -307 60.5t-175.5 228t-60.5 485.5z" />
<glyph unicode="D" horiz-adv-x="1384" d="M141 0v1511h625q281 0 398.5 -192.5t117.5 -562.5q0 -375 -129 -565.5t-387 -190.5h-625zM393 227h348q150 0 219.5 134.5t69.5 394.5q0 205 -30.5 319.5t-93 161.5t-165.5 47h-348v-1057z" />
<glyph unicode="E" horiz-adv-x="1216" d="M141 309v873q0 174 94.5 251.5t227.5 77.5q193 0 332 -6t319 -16v-211h-571q-72 0 -111 -36t-39 -107v-269l629 -14v-199l-629 -14v-260q0 -152 148 -152h573v-211q-258 -23 -622 -26q-144 0 -247.5 63.5t-103.5 255.5z" />
<glyph unicode="F" horiz-adv-x="1181" d="M141 0v1182q0 174 94.5 251.5t227.5 77.5q403 0 651 -22v-211h-577q-68 0 -106 -37t-38 -104v-306l629 -14v-199l-629 -14v-604h-252z" />
<glyph unicode="G" horiz-adv-x="1353" d="M102 758q0 264 46.5 429t164 252t332.5 87q250 0 502 -62v-194q-76 10 -204 19t-255 9q-137 0 -207.5 -51t-97.5 -165.5t-27 -325.5q0 -215 27 -329t89.5 -159t180.5 -45q84 0 168 16.5t150 39.5v348h-305v196q61 8 157.5 14.5t188.5 6.5q123 0 202 -6v-838h-190l-35 104 q-80 -45 -190.5 -79.5t-227.5 -34.5q-182 0 -285.5 88t-143.5 255t-40 425z" />
<glyph unicode="H" horiz-adv-x="1425" d="M141 0v1511h252v-653h637v653h254v-1511h-254v631h-637v-631h-252z" />
<glyph unicode="I" horiz-adv-x="534" d="M141 0v1511h252v-1511h-252z" />
<glyph unicode="J" horiz-adv-x="813" d="M53 31v200q115 -16 189 -16q88 0 133 41t45 137v1118h254v-1155q0 -190 -90 -279t-287 -89q-61 0 -128 12t-116 31z" />
<glyph unicode="K" horiz-adv-x="1292" d="M141 0v1511h252v-645h225l347 645h270l-416 -757l426 -754h-270l-359 637h-223v-637h-252z" />
<glyph unicode="L" horiz-adv-x="1093" d="M141 338v1173h252v-1132q0 -84 40 -117t110 -33h501v-229h-565q-168 0 -253 79t-85 259z" />
<glyph unicode="M" horiz-adv-x="1773" d="M100 0l174 1511h246l367 -1210l364 1210h246l178 -1511h-245l-127 1081l-299 -1081h-238l-301 1075l-121 -1075h-244z" />
<glyph unicode="N" horiz-adv-x="1427" d="M158 0v1511h202l689 -1079v1079h254v-1511h-203l-688 1079v-1079h-254z" />
<glyph unicode="O" horiz-adv-x="1423" d="M102 752q0 317 67 485t196 228.5t346 60.5q219 0 349 -60.5t195.5 -227.5t65.5 -486q0 -317 -66.5 -482.5t-194.5 -223.5t-349 -58q-219 0 -348.5 58t-195 223t-65.5 483zM356 752q0 -229 32 -342t105.5 -154t217.5 -41q141 0 215.5 41t107.5 154.5t33 341.5 q0 236 -34 352.5t-107.5 155t-214.5 38.5q-137 0 -211 -39.5t-109 -155.5t-35 -351z" />
<glyph unicode="P" horiz-adv-x="1259" d="M141 0v1511h625q182 0 301 -103t119 -402q0 -520 -416 -521q-63 0 -186 10.5t-191 20.5v-516h-252zM393 715h340q94 0 146.5 67.5t52.5 221.5q0 280 -190 280h-1h-348v-569z" />
<glyph unicode="Q" horiz-adv-x="1423" d="M102 752q0 317 67 485t196 228.5t346 60.5q219 0 349 -60.5t195.5 -227.5t65.5 -486q0 -317 -66.5 -482.5t-194.5 -223.5t-349 -58q-219 0 -348.5 58t-195 223t-65.5 483zM356 752q0 -229 32 -342t105.5 -154t217.5 -41q141 0 215.5 41t107.5 154.5t33 341.5 q0 236 -34 352.5t-107.5 155t-214.5 38.5q-137 0 -211 -39.5t-109 -155.5t-35 -351zM670 -74h176q16 -63 69.5 -94t120.5 -31q41 0 119 19v-189q-61 -14 -108 -14q-146 0 -255.5 80t-121.5 229z" />
<glyph unicode="R" horiz-adv-x="1269" d="M141 0v1511h615q193 0 305.5 -101t112.5 -368q0 -201 -71 -293t-185 -131l290 -618h-256l-262 582q-125 0 -297 4v-586h-252zM393 784h320q98 0 152.5 56.5t54.5 201.5q0 139 -54.5 190.5t-152.5 51.5h-320v-500z" />
<glyph unicode="S" horiz-adv-x="1198" d="M104 1032v78q0 213 119 313.5t352 100.5q106 0 232.5 -14.5t216.5 -32.5v-199q-276 18 -420 18q-129 0 -193.5 -42t-64.5 -154v-51q0 -92 50 -133.5t153 -41.5h158q190 0 289.5 -103t99.5 -273v-97q0 -236 -131 -324.5t-377 -88.5q-111 0 -246 12t-223 33v198 q184 -16 456 -16q137 0 208 39t71 141v72q0 80 -45 123t-133 43h-141q-215 0 -323 94t-108 305z" />
<glyph unicode="T" horiz-adv-x="1185" d="M33 1284v227h1120v-227h-432v-1284h-254v1284h-434z" />
<glyph unicode="U" horiz-adv-x="1396" d="M121 481v1030h252v-1030q0 -143 82 -203.5t243 -60.5q162 0 244 60.5t82 203.5v1030h252v-1030q0 -276 -148.5 -383.5t-429.5 -107.5q-280 0 -428.5 107.5t-148.5 383.5z" />
<glyph unicode="V" horiz-adv-x="1394" d="M47 1511h262l389 -1239l389 1239h263l-492 -1511h-319z" />
<glyph unicode="W" horiz-adv-x="2029" d="M47 1511h262l273 -1142l315 1142h238l313 -1142l272 1142h262l-370 -1511h-262l-334 1145l-336 -1145h-262z" />
<glyph unicode="X" horiz-adv-x="1329" d="M49 1511h279l350 -557l323 557h281l-471 -770l465 -741h-281l-342 545l-319 -545h-279l465 758z" />
<glyph unicode="Y" horiz-adv-x="1277" d="M49 1511h262l332 -780l332 780h256l-465 -1038v-473h-254v473z" />
<glyph unicode="Z" horiz-adv-x="1165" d="M82 0v205l700 1079h-700v227h1008v-202l-699 -1082h699v-227h-1008z" />
<glyph unicode="[" horiz-adv-x="690" d="M156 -18v1353q0 176 80.5 282.5t269.5 106.5h149v-204h-77q-168 0 -168 -220v-1306q0 -219 168 -219h77v-205h-149q-203 0 -276.5 122t-73.5 290z" />
<glyph unicode="\" horiz-adv-x="903" d="M37 1577h254l575 -1724h-254z" />
<glyph unicode="]" horiz-adv-x="690" d="M37 -225h78q168 0 168 219v1306q0 219 -168 220h-78v204h149q188 0 269.5 -106.5t81.5 -282.5v-1353q0 -168 -74 -290t-277 -122h-149v205z" />
<glyph unicode="^" horiz-adv-x="798" d="M92 1087l232 279h174l211 -279h-150l-153 158l-164 -158h-150z" />
<glyph unicode="_" d="M0 -168h1247v-205h-1247v205z" />
<glyph unicode="`" horiz-adv-x="462" d="M37 1577h207l184 -285h-149z" />
<glyph unicode="a" horiz-adv-x="1122" d="M78 264v92q0 131 89 209t265 78h313v96q0 61 -20 98t-75.5 56.5t-160.5 19.5h-331v148q186 51 430 51q209 0 310 -82t101 -274v-756h-198l-43 119q-20 -18 -84 -50t-149 -56.5t-169 -24.5q-125 0 -201.5 74.5t-76.5 201.5zM330 307q0 -74 42 -106.5t107 -34.5 q58 0 153 29.5t113 40.5v286l-237 -12q-178 -14 -178 -158v-45z" />
<glyph unicode="b" horiz-adv-x="1193" d="M129 0v1563h254v-549q78 43 165 70.5t159 27.5q139 0 225 -57.5t126 -183.5t40 -332q0 -274 -92.5 -412.5t-286.5 -138.5q-103 0 -183.5 31.5t-152.5 86.5l-43 -106h-211zM383 262q125 -67 241 -67h3q104 0 160.5 83.5t56.5 272.5q0 147 -28 225t-74 104.5t-115 26.5 q-115 0 -244 -71v-574z" />
<glyph unicode="c" horiz-adv-x="1003" d="M96 545q0 219 53.5 343t152.5 174t253 50q197 0 375 -43v-145h-299q-102 0 -162.5 -32t-90.5 -114t-30 -233q0 -150 30 -228.5t90 -107.5t165 -29h313v-143q-80 -20 -187.5 -34.5t-209.5 -14.5q-217 0 -335 124t-118 433z" />
<glyph unicode="d" horiz-adv-x="1187" d="M96 539q0 209 39 332.5t129 182t246 58.5q145 0 299 -55v506h254v-1563h-211l-43 106q-53 -47 -145.5 -82.5t-174.5 -35.5q-200 0 -296.5 130t-96.5 421zM348 551q0 -139 22.5 -216t70.5 -109.5t132 -32.5h3q110 0 233 71v610q-66 23 -115 35.5t-106 12.5 q-90 0 -141.5 -32t-75 -112t-23.5 -227z" />
<glyph unicode="e" horiz-adv-x="1103" d="M96 549q0 223 44 344t145.5 170t285.5 49q162 0 256.5 -32.5t137.5 -113.5t43 -227q0 -152 -87 -217t-253 -65h-322q4 -106 28.5 -165t87 -85.5t181.5 -26.5h332v-149q-111 -20 -198 -30.5t-199 -10.5q-183 0 -286.5 50t-149.5 170t-46 339zM344 610h299q74 0 106.5 29 t32.5 100q0 106 -47 147.5t-164 41.5q-88 0 -136 -28t-69.5 -95.5t-21.5 -194.5z" />
<glyph unicode="f" horiz-adv-x="786" d="M41 893v164l160 41v92q0 201 79.5 293t268.5 92q111 0 221 -27v-180h-174q-82 0 -111.5 -39t-29.5 -127v-104h301v-205h-301v-893h-254v893h-160z" />
<glyph unicode="g" horiz-adv-x="1187" d="M49 -201q0 84 46 146.5t124 97.5q-53 29 -80.5 75t-27.5 101q0 80 48 134.5t134 72.5q-98 47 -140 130t-42 185q0 184 111.5 271.5t332.5 87.5h592v-142l-195 -26q45 -41 73 -94.5t28 -153.5q0 -150 -94.5 -242t-299.5 -92h-186q-147 0 -147 -90q0 -39 29.5 -56.5 t72.5 -17.5h326q195 0 292 -76.5t97 -242.5v-35q0 -162 -103.5 -250t-308.5 -88h-321q-162 0 -261.5 69.5t-99.5 196.5v39zM289 -152v-32q0 -72 49 -107t139 -35h223q96 0 149.5 37t53.5 109v35q0 141 -188 141h-244q-80 0 -131 -38t-51 -110zM340 727q0 -96 44 -141 t130 -45h119q106 0 148 47t42 129q0 102 -46 146t-134 44h-115q-94 0 -141 -42t-47 -138z" />
<glyph unicode="h" horiz-adv-x="1214" d="M129 0v1561h254v-578q72 55 172 94t197 39q174 0 256 -103.5t82 -279.5v-733h-254v702q0 86 -50.5 135.5t-132.5 49.5q-74 0 -137 -22.5t-133 -67.5v-797h-254z" />
<glyph unicode="i" horiz-adv-x="514" d="M123 1309v186q0 18 10 29.5t29 11.5h192q18 0 27.5 -11.5t9.5 -29.5v-186q0 -37 -37 -37h-192q-17 0 -28 10t-11 27zM129 0v1098h254v-1098h-254z" />
<glyph unicode="j" horiz-adv-x="514" d="M123 1309v186q0 41 39 41h190q37 0 37 -41v-186q0 -37 -37 -37h-190q-17 0 -28 10t-11 27zM129 -485v1583h254v-1080q0 -135 -16.5 -271t-44.5 -232h-193z" />
<glyph unicode="k" horiz-adv-x="1099" d="M129 0v1563h254v-867h139l275 402h260l-348 -516l376 -582h-260l-307 469h-135v-469h-254z" />
<glyph unicode="l" horiz-adv-x="626" d="M129 354v1209h254v-1174q0 -104 30.5 -146t98.5 -50l92 -13v-184h-149q-166 0 -246 85t-80 273z" />
<glyph unicode="m" horiz-adv-x="1918" d="M129 0v1098h207l47 -115q88 63 178 98t205 35q98 0 169 -43t109 -115q86 63 196 110.5t210 47.5q346 0 346 -395v-721h-254v700q0 88 -49 137.5t-133 49.5q-70 0 -144.5 -26.5t-140.5 -72.5q14 -41 15 -94v-694h-254v700q0 88 -49.5 137.5t-133.5 49.5q-76 0 -139 -22.5 t-131 -67.5v-797h-254z" />
<glyph unicode="n" horiz-adv-x="1214" d="M129 0v1098h207l47 -115q76 57 173 95t194 38q180 0 260 -105.5t80 -279.5v-731h-254v700q0 88 -49.5 137.5t-133.5 49.5q-76 0 -139 -22.5t-131 -67.5v-797h-254z" />
<glyph unicode="o" horiz-adv-x="1179" d="M96 551q0 225 50.5 346t156 168t285.5 47q182 0 287.5 -48t156.5 -170t51 -343t-49 -342t-155.5 -170t-290.5 -49q-178 0 -284.5 51t-157 172t-50.5 338zM348 553q0 -158 24.5 -234.5t75 -101t140.5 -24.5q92 0 142 24.5t74.5 101t24.5 234.5q0 156 -24.5 232.5 t-74.5 100t-142 23.5q-90 0 -140.5 -23.5t-75 -100t-24.5 -232.5z" />
<glyph unicode="p" horiz-adv-x="1193" d="M129 -485v1583h211l43 -109q66 51 150.5 87t173.5 36q201 0 296 -150.5t95 -412.5q0 -281 -91.5 -422t-299.5 -141q-82 0 -168 22.5t-156 61.5v-555h-254zM383 262q51 -31 116.5 -49t127.5 -18q217 0 217 354q0 188 -58.5 273t-156.5 85q-111 0 -246 -71v-574z" />
<glyph unicode="q" horiz-adv-x="1187" d="M96 549q0 301 99.5 432t316.5 131q137 0 288.5 -11t262.5 -26v-1560h-254v591q-70 -53 -155 -85.5t-162 -32.5q-147 0 -233.5 60.5t-124.5 182t-38 318.5zM348 557q0 -139 21.5 -218t67.5 -112.5t126 -33.5q60 0 126.5 19t119.5 52v658h-223q-131 0 -184.5 -90.5 t-53.5 -274.5z" />
<glyph unicode="r" horiz-adv-x="858" d="M129 0v1098h197l57 -176q72 90 152.5 140t183.5 50q49 0 92 -12v-258q-78 8 -125 8q-96 0 -165.5 -32t-137.5 -101v-717h-254z" />
<glyph unicode="s" horiz-adv-x="1030" d="M82 733v62q0 160 96 236.5t326 76.5q92 0 212 -13.5t185 -29.5v-150h-446q-80 0 -118 -27.5t-38 -92.5v-39q0 -63 39 -85t123 -22h170q158 0 237.5 -73.5t79.5 -208.5v-91q0 -160 -106.5 -224t-319.5 -64q-108 0 -237 11t-187 32v149h473q84 0 122 22.5t38 92.5v39 q0 55 -36 82.5t-115 27.5h-166q-332 0 -332 289z" />
<glyph unicode="t" horiz-adv-x="780" d="M29 893v164l180 41l37 307h198v-307h279v-205h-279v-514q0 -96 36 -134t93 -44l138 -15v-186h-183q-182 0 -261 86q-74 81 -74 267v24l8 516h-172z" />
<glyph unicode="u" horiz-adv-x="1214" d="M127 322v776h254v-703q0 -102 46 -142t140 -40q143 0 267 88v797h253v-1098h-206l-47 115q-197 -127 -388 -127q-153 0 -236 86t-83 248z" />
<glyph unicode="v" horiz-adv-x="1134" d="M31 1098h260l274 -862l281 862h258l-399 -1098h-291z" />
<glyph unicode="w" horiz-adv-x="1671" d="M31 1098h260l207 -862l237 862h213l238 -862l194 862h260l-301 -1098h-280l-221 743l-228 -743h-274z" />
<glyph unicode="x" horiz-adv-x="1083" d="M27 0l376 561l-376 537h258l268 -381l246 379l258 2l-377 -563l377 -535h-258l-267 377l-247 -377h-258z" />
<glyph unicode="y" horiz-adv-x="1144" d="M31 1098h262l199 -766q18 -55 44.5 -82t46 -33t46.5 -8l227 889h258l-352 -1381l-98 -202h-207l127 485q-250 0 -328 281z" />
<glyph unicode="z" horiz-adv-x="1026" d="M78 893v205h870v-185l-559 -708h559v-205h-852v184l557 709h-575z" />
<glyph unicode="{" horiz-adv-x="645" d="M37 565v236q147 14 147 125v417q0 180 101.5 280.5t322.5 100.5v-204q-63 0 -100 -25t-53.5 -83t-16.5 -165v-362q0 -94 -52 -143.5t-142 -57.5q88 -16 140 -67.5t52 -127.5v-483q0 -135 37 -189.5t135 -54.5v-192q-239 0 -332.5 89t-93.5 263v518q0 59 -42 94t-103 31z " />
<glyph unicode="|" horiz-adv-x="516" d="M156 -147v1724h204v-1724h-204z" />
<glyph unicode="}" horiz-adv-x="645" d="M37 -238q96 0 134 55.5t38 188.5v483q0 78 51 128.5t139 66.5q-90 8 -141 57.5t-51 143.5v362q0 106 -16.5 164.5t-53.5 83.5t-100 25v204q221 0 322.5 -100t101.5 -281v-417q0 -111 147 -125v-236q-61 4 -103 -30.5t-42 -94.5v-518q0 -174 -94.5 -263t-331.5 -89v192z " />
<glyph unicode="~" horiz-adv-x="884" d="M92 1202q115 139 236 139q33 0 64.5 -14t80.5 -45q6 -4 29.5 -17.5t42 -20.5t30.5 -7q84 0 185 92l35 -94q-111 -139 -224 -139q-32 0 -67 15t-84 44q-6 4 -32 17.5t-44 20.5t-31 7q-45 0 -85 -19.5t-101 -64.5z" />
<glyph unicode="&#xa1;" horiz-adv-x="552" d="M152 -412l36 1096h187l31 -1096h-254zM170 868v195q0 37 39 37h145q17 0 28 -10.5t11 -26.5v-195q0 -39 -39 -39h-145q-39 0 -39 39z" />
<glyph unicode="&#xa2;" horiz-adv-x="995" d="M72 545q0 217 49 338t136 168t216 47v186h145v-190q139 -10 291 -62v-149q-41 8 -131 15t-207 7q-92 0 -143 -27.5t-76.5 -106.5t-25.5 -232q0 -145 25.5 -222t78.5 -106t145 -29q213 0 347 29v-152q-80 -35 -153 -51t-157 -18v-174h-143v174q-188 2 -292.5 122.5 t-104.5 432.5z" />
<glyph unicode="&#xa3;" d="M123 0v193l201 34v432l-201 19v127l201 37v190q0 266 114.5 377t358.5 111q147 0 323 -25v-203h-311q-84 0 -133 -19.5t-73.5 -69.5t-24.5 -144v-217l397 -25v-139l-397 -19v-432h557v-227h-1012z" />
<glyph unicode="&#xa4;" d="M141 356l185 185q-55 88 -56 188q0 100 56 189l-185 184l109 108l184 -184q82 57 189 57q102 0 190 -55l182 182l109 -108l-182 -182q55 -88 55 -191q0 -102 -55 -190l182 -183l-109 -108l-182 182q-88 -55 -190 -55q-106 0 -189 57l-184 -184zM408 729 q0 -90 63.5 -154.5t151.5 -64.5q90 0 155.5 64.5t65.5 154.5t-65.5 155.5t-155.5 65.5q-88 0 -151.5 -65.5t-63.5 -155.5z" />
<glyph unicode="&#xa5;" d="M12 1511h262l332 -780l332 780h256l-377 -843h268v-133h-329l-27 -62v-80h356v-135h-356v-258h-254v258h-315v135h315v80l-26 62h-289v133h229z" />
<glyph unicode="&#xa6;" horiz-adv-x="516" d="M156 -147v671h204v-671h-204zM156 879v698h204v-698h-204z" />
<glyph unicode="&#xa7;" horiz-adv-x="1112" d="M92 686v92q0 90 34 133t110 68q-123 49 -123 229v117q0 281 354 281q113 0 258 -7.5t213 -21.5v-176h-434q-80 0 -115 -24.5t-35 -90.5v-65q0 -49 29 -71t94 -22h217q180 0 255 -53t75 -182v-90q0 -78 -33 -127t-106 -72q125 -33 125 -205v-114q0 -162 -93.5 -229.5 t-271.5 -67.5q-119 0 -255 6t-214 18v181h420q96 0 131 24.5t35 75.5v78q0 51 -23.5 68.5t-101.5 17.5h-223q-164 0 -243 51t-79 178zM334 748q0 -49 32.5 -75t108.5 -26h162q66 0 94.5 6t39.5 27.5t11 69.5v86q0 57 -30.5 78.5t-114.5 21.5h-162q-80 0 -110.5 -22.5 t-30.5 -82.5v-83z" />
<glyph unicode="&#xa8;" horiz-adv-x="827" d="M117 1356v184q0 41 39 41h116q18 0 28.5 -11t10.5 -30v-184q0 -39 -39 -39h-116q-17 0 -28 10t-11 29zM518 1356v184q0 41 39 41h117q18 0 28.5 -11t10.5 -30v-184q0 -39 -39 -39h-117q-16 0 -27.5 10t-11.5 29z" />
<glyph unicode="&#xa9;" horiz-adv-x="1683" d="M100 754q0 745 537 745h457q279 0 385 -209t106 -536q0 -356 -130 -555t-361 -199h-457q-184 0 -304 105.5t-176.5 276.5t-56.5 372zM248 754q0 -168 43 -308.5t130 -224.5t216 -84h444q164 0 259.5 150.5t95.5 466.5q0 272 -74 440t-268 168h-457q-385 0 -389 -608z M465 748q0 446 319 446q74 0 176.5 -10t176.5 -33v-119q-158 25 -306 25q-115 0 -166 -71t-51 -245q0 -158 50.5 -230.5t164.5 -72.5q170 0 320 33v-119q-78 -33 -162 -42t-205 -9q-145 0 -231 98.5t-86 348.5z" />
<glyph unicode="&#xaa;" horiz-adv-x="839" d="M51 922v82q0 92 64.5 141t191.5 49h225v76q0 61 -34.5 85.5t-143.5 24.5h-245v127q150 43 325 43q162 0 242 -59t80 -207v-547h-176l-37 86q-29 -29 -114 -61.5t-169 -32.5q-94 0 -151.5 52.5t-57.5 140.5zM57 526v123h713v-123h-713zM254 967q0 -92 106 -93 q41 0 99.5 17.5t72.5 23.5v193l-163 -10q-59 -2 -87 -30t-28 -71v-30z" />
<glyph unicode="&#xab;" horiz-adv-x="1263" d="M92 578l445 438l131 -127l-318 -311l324 -320l-127 -131zM604 578l445 438l131 -127l-318 -311l324 -320l-127 -131z" />
<glyph unicode="&#xac;" d="M164 872v205h917v-696h-204v491h-713z" />
<glyph unicode="&#xad;" horiz-adv-x="710" d="M47 492v204h619v-204h-619z" />
<glyph unicode="&#xae;" horiz-adv-x="1683" d="M100 754q0 745 537 745h457q279 0 385 -209t106 -536q0 -356 -130 -555t-361 -199h-457q-184 0 -304 105.5t-176.5 276.5t-56.5 372zM248 754q0 -168 43 -308.5t130 -224.5t216 -84h444q164 0 259.5 150.5t95.5 466.5q0 272 -74 440t-268 168h-457q-385 0 -389 -608z M526 313v875h375q119 0 192.5 -59.5t73.5 -213.5q0 -127 -46 -177t-126 -72l195 -353h-152l-186 357l-176 4v-361h-150zM676 784h225q61 0 89 26t28 103q0 76 -30 107t-87 31h-225v-267z" />
<glyph unicode="&#xaf;" horiz-adv-x="745" d="M92 1343v150h563v-150h-563z" />
<glyph unicode="&#xb0;" horiz-adv-x="659" d="M45 1282q0 127 82 208t205 81q125 0 203.5 -81t78.5 -208t-77.5 -206t-204.5 -79q-125 0 -206 79t-81 206zM162 1282q0 -76 48 -123t122 -47t120 47t46 123t-46 124t-120 48q-76 0 -123 -48t-47 -124z" />
<glyph unicode="&#xb1;" d="M164 217v204h917v-204h-917zM164 934v204h356v357h205v-357h356v-204h-356v-357h-205v357h-356z" />
<glyph unicode="&#xb2;" horiz-adv-x="927" d="M92 573v164l363 369q70 70 102.5 130t32.5 122q0 61 -39 94t-127 33h-305v168q201 35 348 35q190 0 269 -76t79 -223q0 -109 -42 -191t-148 -192l-236 -238h461v-195h-758z" />
<glyph unicode="&#xb3;" horiz-adv-x="927" d="M80 596v172h336q94 0 139 24.5t45 86.5v45q0 104 -149 112l-269 11v165l258 15q74 4 111 25.5t37 70.5v47q0 57 -43 86t-135 29h-304v170q178 35 388 33q150 -2 231.5 -72t81.5 -201v-82q0 -84 -40 -134t-103 -69q70 -20 113.5 -77.5t43.5 -147.5v-57q0 -135 -88 -209 t-244 -74q-233 0 -409 31z" />
<glyph unicode="&#xb4;" horiz-adv-x="462" d="M37 1292l182 285h209l-244 -285h-147z" />
<glyph unicode="&#xb5;" horiz-adv-x="1214" />
<glyph unicode="&#xb6;" horiz-adv-x="1173" d="M63 932v293q0 139 92.5 212.5t235.5 73.5h772v-172h-135v-1339h-170v1343h-162v-1896h-168v1210q-16 -12 -57 -20t-96 -8q-152 0 -232 86t-80 217zM233 958q0 -160 170 -159h125v544h-125q-92 0 -131 -38.5t-39 -120.5v-226z" />
<glyph unicode="&#xb7;" horiz-adv-x="532" d="M156 664v151q0 41 39 41h145q39 0 39 -41v-151q0 -37 -39 -37h-145q-17 0 -28 10t-11 27z" />
<glyph unicode="&#xb8;" horiz-adv-x="512" d="M92 -295l39 4q94 12 94 80q0 31 -23.5 52.5t-84.5 27.5l106 164h115l-90 -142q65 -4 103 -37.5t38 -95.5q0 -76 -53 -116.5t-158 -40.5h-86v104z" />
<glyph unicode="&#xb9;" horiz-adv-x="927" d="M123 573v195h248v713l-232 -37v158l256 88h199v-922h248v-195h-719z" />
<glyph unicode="&#xba;" horiz-adv-x="878" d="M63 1141q0 164 38 252t118 123.5t219 35.5q140 0 220.5 -36.5t118.5 -126t38 -248.5q0 -160 -37 -248t-117.5 -125t-222.5 -37q-139 0 -220 38t-118 127t-37 245zM80 526v123h717v-123h-717zM287 1141q0 -109 15 -162t47 -69.5t89 -16.5q58 0 89.5 16.5t48 69.5t16.5 162 t-16.5 162t-48 69.5t-89.5 16.5q-59 0 -90 -16.5t-46 -69t-15 -162.5z" />
<glyph unicode="&#xbb;" horiz-adv-x="1263" d="M84 887l131 129l451 -445l-453 -444l-125 131l318 313zM596 887l131 129l451 -445l-453 -444l-125 131l318 313z" />
<glyph unicode="&#xbc;" horiz-adv-x="2611" d="M131 573v195h248v713l-232 -37v158l256 88h199v-922h248v-195h-719zM835 0l760 1577h178l-760 -1577h-178zM1679 377l346 729h224l-324 -686h270v182l54 164h157v-346h117v-148l-117 -34v-238h-211v238h-487z" />
<glyph unicode="&#xbd;" horiz-adv-x="2611" d="M131 573v195h248v713l-232 -37v158l256 88h199v-922h248v-195h-719zM835 0l760 1577h178l-760 -1577h-178zM1720 0v164l363 368q70 70 102.5 130.5t32.5 121.5t-39 94t-127 33h-305v168q201 35 348 35q190 0 269 -75.5t79 -223.5q0 -109 -42 -190.5t-148 -192.5 l-236 -237h461v-195h-758z" />
<glyph unicode="&#xbe;" horiz-adv-x="2611" d="M100 596v172h336q94 0 139 24.5t45 86.5v45q0 104 -149 112l-269 11v165l258 15q74 4 111 25.5t37 70.5v47q0 57 -43 86t-135 29h-304v170q178 35 388 33q150 -2 231.5 -72t81.5 -201v-82q0 -84 -40 -134t-103 -69q70 -20 113.5 -77.5t43.5 -147.5v-57q0 -135 -88 -209 t-244 -74q-233 0 -409 31zM835 0l760 1577h178l-760 -1577h-178zM1679 377l346 729h224l-324 -686h270v182l54 164h157v-346h117v-148l-117 -34v-238h-211v238h-487z" />
<glyph unicode="&#xbf;" horiz-adv-x="1085" d="M135 -4v129q0 190 106.5 283.5t331.5 93.5v184h193v-377h-127q-133 0 -192.5 -41t-59.5 -147v-86q0 -119 60.5 -171t187.5 -52q90 0 175 17t187 54v-184q-193 -115 -440 -115q-211 0 -316.5 109.5t-105.5 302.5zM559 868v195q0 37 39 37h145q17 0 28 -10.5t11 -26.5v-195 q0 -39 -39 -39h-145q-39 0 -39 39z" />
<glyph unicode="&#xc0;" horiz-adv-x="1394" d="M47 0l492 1511h319l492 -1511h-265l-116 358h-547l-115 -358h-260zM405 1905h207l184 -285h-149zM481 586h426l-213 708z" />
<glyph unicode="&#xc1;" horiz-adv-x="1394" d="M47 0l492 1511h319l492 -1511h-265l-116 358h-547l-115 -358h-260zM481 586h426l-213 708zM631 1620l182 285h209l-244 -285h-147z" />
<glyph unicode="&#xc2;" horiz-adv-x="1394" d="M47 0l492 1511h319l492 -1511h-265l-116 358h-547l-115 -358h-260zM383 1620l231 285h174l211 -285h-149l-154 170l-164 -170h-149zM481 586h426l-213 708z" />
<glyph unicode="&#xc3;" horiz-adv-x="1394" d="M47 0l492 1511h319l492 -1511h-265l-116 358h-547l-115 -358h-260zM321 1628q6 131 64.5 190.5t144.5 59.5q49 0 87 -14.5t91 -44.5q43 -25 69.5 -36t57.5 -11q45 0 71.5 29.5t28.5 84.5h129q-4 -125 -58 -190.5t-148 -65.5q-47 0 -88 15.5t-93 44.5q-45 25 -72.5 36 t-56.5 11q-43 0 -70.5 -29t-29.5 -80h-127zM481 586h426l-213 708z" />
<glyph unicode="&#xc4;" horiz-adv-x="1394" d="M47 0l492 1511h319l492 -1511h-265l-116 358h-547l-115 -358h-260zM356 1683v185q0 18 10.5 29.5t28.5 11.5h119q18 0 27.5 -11.5t9.5 -29.5v-185q0 -39 -37 -38h-119q-16 0 -27.5 10t-11.5 28zM481 586h426l-213 708zM809 1683v185q0 41 39 41h116q18 0 28.5 -11.5 t10.5 -29.5v-185q0 -39 -39 -38h-116q-17 0 -28 10t-11 28z" />
<glyph unicode="&#xc5;" horiz-adv-x="1394" d="M47 0l492 1511h319l492 -1511h-265l-116 358h-547l-115 -358h-260zM450 1796q0 123 60.5 176t183.5 53t182.5 -52t59.5 -177q0 -123 -58.5 -175t-183.5 -52q-123 0 -183.5 52t-60.5 175zM481 586h426l-213 708zM569 1796q0 -74 30 -102.5t95 -28.5q66 0 94.5 28.5 t28.5 102.5t-28.5 103.5t-94.5 29.5t-95.5 -29.5t-29.5 -103.5z" />
<glyph unicode="&#xc6;" horiz-adv-x="1996" d="M47 0l655 1161q100 190 232.5 270t345.5 80q268 0 614 -22v-211h-563q-72 0 -102.5 -29.5t-30.5 -91.5v-291l604 -14v-199l-604 -14v-260q0 -88 44 -120t126 -32h526v-209q-348 -29 -583 -28q-164 0 -246 55t-94 191l-2 120h-459l-213 -356h-250zM625 571h344v619z" />
<glyph unicode="&#xc7;" horiz-adv-x="1196" d="M102 762q0 301 61.5 468t180.5 231.5t307 64.5q123 0 247 -19.5t212 -46.5v-194q-61 12 -175 22t-233 10q-135 0 -207.5 -42t-105.5 -156.5t-33 -341.5t31 -342t102.5 -158t210.5 -43q233 0 410 23v-195q-141 -45 -352 -53l-64 -99q66 -4 104 -37.5t38 -95.5 q0 -76 -53.5 -116.5t-157.5 -40.5h-86v104l39 4q94 12 94 80q0 31 -23.5 52.5t-85.5 27.5l78 119q-190 2 -305 62.5t-174.5 228t-59.5 483.5z" />
<glyph unicode="&#xc8;" horiz-adv-x="1216" d="M141 309v873q0 174 94.5 251.5t227.5 77.5q193 0 332 -6t319 -16v-211h-571q-72 0 -111 -36t-39 -107v-269l629 -14v-199l-629 -14v-260q0 -152 148 -152h573v-211q-258 -23 -622 -26q-144 0 -247.5 63.5t-103.5 255.5zM350 1905h207l184 -285h-149z" />
<glyph unicode="&#xc9;" horiz-adv-x="1216" d="M141 309v873q0 174 94.5 251.5t227.5 77.5q193 0 332 -6t319 -16v-211h-571q-72 0 -111 -36t-39 -107v-269l629 -14v-199l-629 -14v-260q0 -152 148 -152h573v-211q-258 -23 -622 -26q-144 0 -247.5 63.5t-103.5 255.5zM576 1620l182 285h209l-244 -285h-147z" />
<glyph unicode="&#xca;" horiz-adv-x="1216" d="M141 309v873q0 174 94.5 251.5t227.5 77.5q193 0 332 -6t319 -16v-211h-571q-72 0 -111 -36t-39 -107v-269l629 -14v-199l-629 -14v-260q0 -152 148 -152h573v-211q-258 -23 -622 -26q-144 0 -247.5 63.5t-103.5 255.5zM328 1620l231 285h174l211 -285h-149l-154 170 l-164 -170h-149z" />
<glyph unicode="&#xcb;" horiz-adv-x="1216" d="M141 309v873q0 174 94.5 251.5t227.5 77.5q193 0 332 -6t319 -16v-211h-571q-72 0 -111 -36t-39 -107v-269l629 -14v-199l-629 -14v-260q0 -152 148 -152h573v-211q-258 -23 -622 -26q-144 0 -247.5 63.5t-103.5 255.5zM301 1683v185q0 18 10.5 29.5t28.5 11.5h119 q18 0 27.5 -11.5t9.5 -29.5v-185q0 -39 -37 -38h-119q-16 0 -27.5 10t-11.5 28zM754 1683v185q0 41 39 41h116q18 0 28.5 -11.5t10.5 -29.5v-185q0 -39 -39 -38h-116q-17 0 -28 10t-11 28z" />
<glyph unicode="&#xcc;" horiz-adv-x="534" d="M-21 1905h207l184 -285h-149zM141 0v1511h252v-1511h-252z" />
<glyph unicode="&#xcd;" horiz-adv-x="534" d="M141 0v1511h252v-1511h-252zM205 1620l182 285h209l-244 -285h-147z" />
<glyph unicode="&#xce;" horiz-adv-x="534" d="M-43 1620l231 285h174l211 -285h-149l-154 170l-164 -170h-149zM141 0v1511h252v-1511h-252z" />
<glyph unicode="&#xcf;" horiz-adv-x="534" d="M-70 1683v185q0 18 10.5 29.5t28.5 11.5h119q18 0 27.5 -11.5t9.5 -29.5v-185q0 -39 -37 -38h-119q-16 0 -27.5 10t-11.5 28zM141 0v1511h252v-1511h-252zM383 1683v185q0 41 39 41h116q18 0 28.5 -11.5t10.5 -29.5v-185q0 -39 -39 -38h-116q-17 0 -28 10t-11 28z" />
<glyph unicode="&#xd0;" horiz-adv-x="1384" d="M27 680v168h114v663h625q281 0 398.5 -192.5t117.5 -562.5q0 -375 -129 -565.5t-387 -190.5h-625v680h-114zM393 227h348q150 0 219.5 134.5t69.5 394.5q0 205 -30.5 319.5t-93 161.5t-165.5 47h-348v-436h281v-168h-281v-453z" />
<glyph unicode="&#xd1;" horiz-adv-x="1427" d="M158 0v1511h202l689 -1079v1079h254v-1511h-203l-688 1079v-1079h-254zM326 1628q6 131 64.5 190.5t144.5 59.5q49 0 87 -14.5t91 -44.5q43 -25 69.5 -36t57.5 -11q45 0 71.5 29.5t28.5 84.5h129q-4 -125 -58 -190.5t-148 -65.5q-47 0 -88 15.5t-93 44.5q-45 25 -72.5 36 t-56.5 11q-43 0 -70.5 -29t-29.5 -80h-127z" />
<glyph unicode="&#xd2;" horiz-adv-x="1423" d="M102 752q0 317 67 485t196 228.5t346 60.5q219 0 349 -60.5t195.5 -227.5t65.5 -486q0 -317 -66.5 -482.5t-194.5 -223.5t-349 -58q-219 0 -348.5 58t-195 223t-65.5 483zM356 752q0 -229 32 -342t105.5 -154t217.5 -41q141 0 215.5 41t107.5 154.5t33 341.5 q0 236 -34 352.5t-107.5 155t-214.5 38.5q-137 0 -211 -39.5t-109 -155.5t-35 -351zM422 1905h207l184 -285h-149z" />
<glyph unicode="&#xd3;" horiz-adv-x="1423" d="M102 752q0 317 67 485t196 228.5t346 60.5q219 0 349 -60.5t195.5 -227.5t65.5 -486q0 -317 -66.5 -482.5t-194.5 -223.5t-349 -58q-219 0 -348.5 58t-195 223t-65.5 483zM356 752q0 -229 32 -342t105.5 -154t217.5 -41q141 0 215.5 41t107.5 154.5t33 341.5 q0 236 -34 352.5t-107.5 155t-214.5 38.5q-137 0 -211 -39.5t-109 -155.5t-35 -351zM648 1620l182 285h209l-244 -285h-147z" />
<glyph unicode="&#xd4;" horiz-adv-x="1423" d="M102 752q0 317 67 485t196 228.5t346 60.5q219 0 349 -60.5t195.5 -227.5t65.5 -486q0 -317 -66.5 -482.5t-194.5 -223.5t-349 -58q-219 0 -348.5 58t-195 223t-65.5 483zM356 752q0 -229 32 -342t105.5 -154t217.5 -41q141 0 215.5 41t107.5 154.5t33 341.5 q0 236 -34 352.5t-107.5 155t-214.5 38.5q-137 0 -211 -39.5t-109 -155.5t-35 -351zM400 1620l231 285h174l211 -285h-149l-154 170l-164 -170h-149z" />
<glyph unicode="&#xd5;" horiz-adv-x="1423" d="M102 752q0 317 67 485t196 228.5t346 60.5q219 0 349 -60.5t195.5 -227.5t65.5 -486q0 -317 -66.5 -482.5t-194.5 -223.5t-349 -58q-219 0 -348.5 58t-195 223t-65.5 483zM338 1628q6 131 64.5 190.5t144.5 59.5q49 0 87 -14.5t91 -44.5q43 -25 69.5 -36t57.5 -11 q45 0 71.5 29.5t28.5 84.5h129q-4 -125 -58 -190.5t-148 -65.5q-47 0 -88 15.5t-93 44.5q-45 25 -72.5 36t-56.5 11q-43 0 -70.5 -29t-29.5 -80h-127zM356 752q0 -229 32 -342t105.5 -154t217.5 -41q141 0 215.5 41t107.5 154.5t33 341.5q0 236 -34 352.5t-107.5 155 t-214.5 38.5q-137 0 -211 -39.5t-109 -155.5t-35 -351z" />
<glyph unicode="&#xd6;" horiz-adv-x="1423" d="M102 752q0 317 67 485t196 228.5t346 60.5q219 0 349 -60.5t195.5 -227.5t65.5 -486q0 -317 -66.5 -482.5t-194.5 -223.5t-349 -58q-219 0 -348.5 58t-195 223t-65.5 483zM356 752q0 -229 32 -342t105.5 -154t217.5 -41q141 0 215.5 41t107.5 154.5t33 341.5 q0 236 -34 352.5t-107.5 155t-214.5 38.5q-137 0 -211 -39.5t-109 -155.5t-35 -351zM373 1683v185q0 18 10.5 29.5t28.5 11.5h119q18 0 27.5 -11.5t9.5 -29.5v-185q0 -39 -37 -38h-119q-16 0 -27.5 10t-11.5 28zM826 1683v185q0 41 39 41h116q18 0 28.5 -11.5t10.5 -29.5 v-185q0 -39 -39 -38h-116q-17 0 -28 10t-11 28z" />
<glyph unicode="&#xd7;" d="M225 477l252 252l146 -145l-252 -252zM225 981l146 145l252 -252l-146 -145zM623 584l145 145l252 -252l-146 -145zM623 874l251 252l146 -145l-252 -252z" />
<glyph unicode="&#xd8;" horiz-adv-x="1423" d="M102 752q0 317 67 485t196 228.5t346 60.5q123 0 215 -17.5t159 -58.5l41 61h172l-104 -157q63 -88 95 -234.5t32 -367.5q0 -317 -66.5 -482.5t-194.5 -223.5t-349 -58q-123 0 -214 16t-161 55l-39 -59h-170l102 156q-63 86 -95 231t-32 365zM356 752q0 -240 35 -353 l559 844q-41 31 -98 43t-141 12q-137 0 -211 -39.5t-109 -155.5t-35 -351zM475 268q39 -29 96.5 -41t139.5 -12q141 0 215.5 41t107.5 154.5t33 341.5q0 242 -35 358z" />
<glyph unicode="&#xd9;" horiz-adv-x="1396" d="M121 481v1030h252v-1030q0 -143 82 -203.5t243 -60.5q162 0 244 60.5t82 203.5v1030h252v-1030q0 -276 -148.5 -383.5t-429.5 -107.5q-280 0 -428.5 107.5t-148.5 383.5zM395 1905h207l184 -285h-149z" />
<glyph unicode="&#xda;" horiz-adv-x="1396" d="M121 481v1030h252v-1030q0 -143 82 -203.5t243 -60.5q162 0 244 60.5t82 203.5v1030h252v-1030q0 -276 -148.5 -383.5t-429.5 -107.5q-280 0 -428.5 107.5t-148.5 383.5zM621 1620l182 285h209l-244 -285h-147z" />
<glyph unicode="&#xdb;" horiz-adv-x="1396" d="M121 481v1030h252v-1030q0 -143 82 -203.5t243 -60.5q162 0 244 60.5t82 203.5v1030h252v-1030q0 -276 -148.5 -383.5t-429.5 -107.5q-280 0 -428.5 107.5t-148.5 383.5zM373 1620l231 285h174l211 -285h-149l-154 170l-164 -170h-149z" />
<glyph unicode="&#xdc;" horiz-adv-x="1396" d="M121 481v1030h252v-1030q0 -143 82 -203.5t243 -60.5q162 0 244 60.5t82 203.5v1030h252v-1030q0 -276 -148.5 -383.5t-429.5 -107.5q-280 0 -428.5 107.5t-148.5 383.5zM346 1683v185q0 18 10.5 29.5t28.5 11.5h119q18 0 27.5 -11.5t9.5 -29.5v-185q0 -39 -37 -38h-119 q-16 0 -27.5 10t-11.5 28zM799 1683v185q0 41 39 41h116q18 0 28.5 -11.5t10.5 -29.5v-185q0 -39 -39 -38h-116q-17 0 -28 10t-11 28z" />
<glyph unicode="&#xdd;" horiz-adv-x="1277" d="M49 1511h262l332 -780l332 780h256l-465 -1038v-473h-254v473zM580 1620l182 285h209l-244 -285h-147z" />
<glyph unicode="&#xde;" horiz-adv-x="1181" d="M141 0v1511h252v-256h295q182 0 301 -97t119 -380q0 -492 -416 -491q-76 0 -299 30v-317h-252zM393 516h262q94 0 146.5 60.5t52.5 199.5q0 252 -190 252h-271v-512z" />
<glyph unicode="&#xdf;" horiz-adv-x="1224" d="M109 0v1106q0 207 126.5 335t378.5 128q242 0 356.5 -102.5t114.5 -274.5q0 -90 -39.5 -156.5t-111.5 -142.5q-47 -49 -70.5 -83t-23.5 -71q0 -39 31.5 -64.5t99.5 -60.5q68 -33 109.5 -62.5t72.5 -78.5t31 -121v-57q0 -160 -110.5 -234.5t-256.5 -74.5q-92 0 -178 9 t-137 23v170q131 -8 254 -8q100 0 143 36t43 83v33q0 41 -34 67.5t-103 57.5q-66 31 -107 57.5t-70.5 70.5t-29.5 109q0 74 34 132.5t99 134.5q57 66 86 112.5t29 104.5q0 98 -59.5 142t-174.5 44q-127 0 -188.5 -69.5t-61.5 -215.5v-1079h-253z" />
<glyph unicode="&#xe0;" horiz-adv-x="1122" d="M78 264v92q0 131 89 209t265 78h313v96q0 61 -20 98t-75.5 56.5t-160.5 19.5h-331v148q186 51 430 51q209 0 310 -82t101 -274v-756h-198l-43 119q-20 -18 -84 -50t-149 -56.5t-169 -24.5q-125 0 -201.5 74.5t-76.5 201.5zM281 1577h207l184 -285h-149zM330 307 q0 -74 42 -106.5t107 -34.5q58 0 153 29.5t113 40.5v286l-237 -12q-178 -14 -178 -158v-45z" />
<glyph unicode="&#xe1;" horiz-adv-x="1122" d="M78 264v92q0 131 89 209t265 78h313v96q0 61 -20 98t-75.5 56.5t-160.5 19.5h-331v148q186 51 430 51q209 0 310 -82t101 -274v-756h-198l-43 119q-20 -18 -84 -50t-149 -56.5t-169 -24.5q-125 0 -201.5 74.5t-76.5 201.5zM330 307q0 -74 42 -106.5t107 -34.5 q58 0 153 29.5t113 40.5v286l-237 -12q-178 -14 -178 -158v-45zM473 1292l182 285h209l-244 -285h-147z" />
<glyph unicode="&#xe2;" horiz-adv-x="1122" d="M78 264v92q0 131 89 209t265 78h313v96q0 61 -20 98t-75.5 56.5t-160.5 19.5h-331v148q186 51 430 51q209 0 310 -82t101 -274v-756h-198l-43 119q-20 -18 -84 -50t-149 -56.5t-169 -24.5q-125 0 -201.5 74.5t-76.5 201.5zM242 1292l232 285h174l211 -285h-150l-153 170 l-164 -170h-150zM330 307q0 -74 42 -106.5t107 -34.5q58 0 153 29.5t113 40.5v286l-237 -12q-178 -14 -178 -158v-45z" />
<glyph unicode="&#xe3;" horiz-adv-x="1122" d="M78 264v92q0 131 89 209t265 78h313v96q0 61 -20 98t-75.5 56.5t-160.5 19.5h-331v148q186 51 430 51q209 0 310 -82t101 -274v-756h-198l-43 119q-20 -18 -84 -50t-149 -56.5t-169 -24.5q-125 0 -201.5 74.5t-76.5 201.5zM197 1300q6 132 64.5 191t144.5 59q49 0 87 -14 t91 -45q43 -25 69.5 -36t57.5 -11q45 0 71.5 29.5t28.5 85.5h129q-4 -125 -58 -190.5t-149 -65.5q-47 0 -88 15t-92 44q-45 25 -72.5 36t-56.5 11q-43 0 -70.5 -28.5t-29.5 -80.5h-127zM330 307q0 -74 42 -106.5t107 -34.5q58 0 153 29.5t113 40.5v286l-237 -12 q-178 -14 -178 -158v-45z" />
<glyph unicode="&#xe4;" horiz-adv-x="1122" d="M78 264v92q0 131 89 209t265 78h313v96q0 61 -20 98t-75.5 56.5t-160.5 19.5h-331v148q186 51 430 51q209 0 310 -82t101 -274v-756h-198l-43 119q-20 -18 -84 -50t-149 -56.5t-169 -24.5q-125 0 -201.5 74.5t-76.5 201.5zM248 1356v184q0 18 10 29.5t29 11.5h119 q18 0 27 -11t9 -30v-184q0 -39 -36 -39h-119q-17 0 -28 10t-11 29zM330 307q0 -74 42 -106.5t107 -34.5q58 0 153 29.5t113 40.5v286l-237 -12q-178 -14 -178 -158v-45zM649 1356v184q0 41 39 41h119q18 0 27.5 -11t9.5 -30v-184q0 -39 -37 -39h-119q-16 0 -27.5 10 t-11.5 29z" />
<glyph unicode="&#xe5;" horiz-adv-x="1122" d="M78 264v92q0 131 89 209t265 78h313v96q0 61 -20 98t-75.5 56.5t-160.5 19.5h-331v148q186 51 430 51q209 0 310 -82t101 -274v-756h-198l-43 119q-20 -18 -84 -50t-149 -56.5t-169 -24.5q-125 0 -201.5 74.5t-76.5 201.5zM309 1432q0 123 60.5 176t183.5 53t182.5 -52.5 t59.5 -176.5q0 -123 -58.5 -175.5t-183.5 -52.5q-123 0 -183.5 52.5t-60.5 175.5zM330 307q0 -74 42 -106.5t107 -34.5q58 0 153 29.5t113 40.5v286l-237 -12q-178 -14 -178 -158v-45zM428 1432q0 -74 29.5 -103t95.5 -29q65 0 94 29t29 103t-29 103.5t-94 29.5 q-66 0 -95.5 -30t-29.5 -103z" />
<glyph unicode="&#xe6;" horiz-adv-x="1765" d="M82 270v82q0 129 88 207t264 78h316v108q0 82 -54.5 125t-181.5 43h-352v148q92 27 180 39t207 12q117 0 206 -39t132 -110q92 150 346 149q154 0 245 -34t136 -116.5t45 -230.5q0 -143 -87 -201.5t-267 -58.5h-308q0 -119 38 -182.5t107.5 -86t176.5 -22.5h307v-149 q-164 -43 -428 -43q-135 0 -231.5 55t-145.5 141q-78 -82 -197.5 -139t-254.5 -57q-144 0 -215.5 78.5t-71.5 203.5zM336 311q0 -145 147 -145q76 0 152 35t135 94q-23 88 -25 215l-262 -14q-76 -2 -111.5 -42t-35.5 -100v-43zM997 633h299q68 0 101 23.5t33 80.5 q0 102 -49.5 143.5t-166.5 41.5q-88 0 -133 -25t-63.5 -86t-20.5 -178z" />
<glyph unicode="&#xe7;" horiz-adv-x="1003" d="M96 545q0 219 53.5 343t152.5 174t253 50q197 0 375 -43v-145h-299q-102 0 -162.5 -32t-90.5 -114t-30 -233q0 -150 30 -228.5t90 -107.5t165 -29h313v-143q-139 -37 -323 -47l-64 -99q66 -4 103.5 -37.5t37.5 -95.5q0 -76 -53 -116.5t-158 -40.5h-86v104l39 4 q94 12 95 80q0 31 -24 52.5t-85 27.5l78 121q-197 10 -303.5 135t-106.5 420z" />
<glyph unicode="&#xe8;" horiz-adv-x="1103" d="M96 549q0 223 44 344t145.5 170t285.5 49q162 0 256.5 -32.5t137.5 -113.5t43 -227q0 -152 -87 -217t-253 -65h-322q4 -106 28.5 -165t87 -85.5t181.5 -26.5h332v-149q-111 -20 -198 -30.5t-199 -10.5q-183 0 -286.5 50t-149.5 170t-46 339zM281 1577h207l184 -285h-149z M344 610h299q74 0 106.5 29t32.5 100q0 106 -47 147.5t-164 41.5q-88 0 -136 -28t-69.5 -95.5t-21.5 -194.5z" />
<glyph unicode="&#xe9;" horiz-adv-x="1103" d="M96 549q0 223 44 344t145.5 170t285.5 49q162 0 256.5 -32.5t137.5 -113.5t43 -227q0 -152 -87 -217t-253 -65h-322q4 -106 28.5 -165t87 -85.5t181.5 -26.5h332v-149q-111 -20 -198 -30.5t-199 -10.5q-183 0 -286.5 50t-149.5 170t-46 339zM344 610h299q74 0 106.5 29 t32.5 100q0 106 -47 147.5t-164 41.5q-88 0 -136 -28t-69.5 -95.5t-21.5 -194.5zM473 1292l182 285h209l-244 -285h-147z" />
<glyph unicode="&#xea;" horiz-adv-x="1103" d="M96 549q0 223 44 344t145.5 170t285.5 49q162 0 256.5 -32.5t137.5 -113.5t43 -227q0 -152 -87 -217t-253 -65h-322q4 -106 28.5 -165t87 -85.5t181.5 -26.5h332v-149q-111 -20 -198 -30.5t-199 -10.5q-183 0 -286.5 50t-149.5 170t-46 339zM242 1292l232 285h174 l211 -285h-150l-153 170l-164 -170h-150zM344 610h299q74 0 106.5 29t32.5 100q0 106 -47 147.5t-164 41.5q-88 0 -136 -28t-69.5 -95.5t-21.5 -194.5z" />
<glyph unicode="&#xeb;" horiz-adv-x="1103" d="M96 549q0 223 44 344t145.5 170t285.5 49q162 0 256.5 -32.5t137.5 -113.5t43 -227q0 -152 -87 -217t-253 -65h-322q4 -106 28.5 -165t87 -85.5t181.5 -26.5h332v-149q-111 -20 -198 -30.5t-199 -10.5q-183 0 -286.5 50t-149.5 170t-46 339zM248 1356v184q0 18 10 29.5 t29 11.5h119q18 0 27 -11t9 -30v-184q0 -39 -36 -39h-119q-17 0 -28 10t-11 29zM344 610h299q74 0 106.5 29t32.5 100q0 106 -47 147.5t-164 41.5q-88 0 -136 -28t-69.5 -95.5t-21.5 -194.5zM649 1356v184q0 41 39 41h119q18 0 27.5 -11t9.5 -30v-184q0 -39 -37 -39h-119 q-16 0 -27.5 10t-11.5 29z" />
<glyph unicode="&#xec;" horiz-adv-x="509" d="M-16 1577h207l184 -285h-149zM129 0v1098h254v-1098h-254z" />
<glyph unicode="&#xed;" horiz-adv-x="509" d="M129 0v1098h254v-1098h-254zM176 1292l182 285h209l-244 -285h-147z" />
<glyph unicode="&#xee;" horiz-adv-x="509" d="M-55 1292l232 285h174l211 -285h-150l-153 170l-164 -170h-150zM129 0v1098h254v-1098h-254z" />
<glyph unicode="&#xef;" horiz-adv-x="509" d="M-49 1356v184q0 18 10 29.5t29 11.5h119q18 0 27 -11t9 -30v-184q0 -39 -36 -39h-119q-17 0 -28 10t-11 29zM129 0v1098h254v-1098h-254zM352 1356v184q0 41 39 41h119q18 0 27.5 -11t9.5 -30v-184q0 -39 -37 -39h-119q-16 0 -27.5 10t-11.5 29z" />
<glyph unicode="&#xf0;" horiz-adv-x="1179" d="M96 539q0 215 53.5 334.5t151.5 165.5t254 46q170 0 260 -63q-45 168 -145 260l-330 -127l-33 86l271 105q-117 57 -302 67v154q334 -10 515 -137l249 96l33 -86l-205 -80q111 -117 163 -313.5t52 -495.5q0 -221 -49 -342t-155.5 -170t-290.5 -49q-178 0 -284.5 49 t-157 168t-50.5 332zM348 541q0 -152 24.5 -226.5t75 -98t140.5 -23.5q92 0 142 23.5t74.5 98t24.5 226.5t-24.5 224.5t-74.5 96t-142 23.5t-141.5 -23.5t-74 -96.5t-24.5 -224z" />
<glyph unicode="&#xf1;" horiz-adv-x="1214" d="M129 0v1098h207l47 -115q76 57 173 95t194 38q180 0 260 -105.5t80 -279.5v-731h-254v700q0 88 -49.5 137.5t-133.5 49.5q-76 0 -139 -22.5t-131 -67.5v-797h-254zM250 1300q6 132 64.5 191t144.5 59q49 0 87 -14t91 -45q43 -25 69.5 -36t57.5 -11q45 0 71.5 29.5 t28.5 85.5h129q-4 -125 -58 -190.5t-149 -65.5q-47 0 -88 15t-92 44q-45 25 -72.5 36t-56.5 11q-43 0 -70.5 -28.5t-29.5 -80.5h-127z" />
<glyph unicode="&#xf2;" horiz-adv-x="1179" d="M96 551q0 225 50.5 346t156 168t285.5 47q182 0 287.5 -48t156.5 -170t51 -343t-49 -342t-155.5 -170t-290.5 -49q-178 0 -284.5 51t-157 172t-50.5 338zM316 1577h207l184 -285h-149zM348 553q0 -158 24.5 -234.5t75 -101t140.5 -24.5q92 0 142 24.5t74.5 101 t24.5 234.5q0 156 -24.5 232.5t-74.5 100t-142 23.5q-90 0 -140.5 -23.5t-75 -100t-24.5 -232.5z" />
<glyph unicode="&#xf3;" horiz-adv-x="1179" d="M96 551q0 225 50.5 346t156 168t285.5 47q182 0 287.5 -48t156.5 -170t51 -343t-49 -342t-155.5 -170t-290.5 -49q-178 0 -284.5 51t-157 172t-50.5 338zM348 553q0 -158 24.5 -234.5t75 -101t140.5 -24.5q92 0 142 24.5t74.5 101t24.5 234.5q0 156 -24.5 232.5 t-74.5 100t-142 23.5q-90 0 -140.5 -23.5t-75 -100t-24.5 -232.5zM508 1292l182 285h209l-244 -285h-147z" />
<glyph unicode="&#xf4;" horiz-adv-x="1179" d="M96 551q0 225 50.5 346t156 168t285.5 47q182 0 287.5 -48t156.5 -170t51 -343t-49 -342t-155.5 -170t-290.5 -49q-178 0 -284.5 51t-157 172t-50.5 338zM276 1292l232 285h174l211 -285h-150l-153 170l-164 -170h-150zM348 553q0 -158 24.5 -234.5t75 -101t140.5 -24.5 q92 0 142 24.5t74.5 101t24.5 234.5q0 156 -24.5 232.5t-74.5 100t-142 23.5q-90 0 -140.5 -23.5t-75 -100t-24.5 -232.5z" />
<glyph unicode="&#xf5;" horiz-adv-x="1179" d="M96 551q0 225 50.5 346t156 168t285.5 47q182 0 287.5 -48t156.5 -170t51 -343t-49 -342t-155.5 -170t-290.5 -49q-178 0 -284.5 51t-157 172t-50.5 338zM234 1300q6 132 64.5 191t144.5 59q49 0 87 -14t91 -45q43 -25 69.5 -36t57.5 -11q45 0 71.5 29.5t28.5 85.5h129 q-4 -125 -58 -190.5t-149 -65.5q-47 0 -88 15t-92 44q-45 25 -72.5 36t-56.5 11q-43 0 -70.5 -28.5t-29.5 -80.5h-127zM348 553q0 -158 24.5 -234.5t75 -101t140.5 -24.5q92 0 142 24.5t74.5 101t24.5 234.5q0 156 -24.5 232.5t-74.5 100t-142 23.5q-90 0 -140.5 -23.5 t-75 -100t-24.5 -232.5z" />
<glyph unicode="&#xf6;" horiz-adv-x="1179" d="M96 551q0 225 50.5 346t156 168t285.5 47q182 0 287.5 -48t156.5 -170t51 -343t-49 -342t-155.5 -170t-290.5 -49q-178 0 -284.5 51t-157 172t-50.5 338zM283 1356v184q0 18 10 29.5t29 11.5h119q18 0 27 -11t9 -30v-184q0 -39 -36 -39h-119q-17 0 -28 10t-11 29z M348 553q0 -158 24.5 -234.5t75 -101t140.5 -24.5q92 0 142 24.5t74.5 101t24.5 234.5q0 156 -24.5 232.5t-74.5 100t-142 23.5q-90 0 -140.5 -23.5t-75 -100t-24.5 -232.5zM684 1356v184q0 41 39 41h119q18 0 27.5 -11t9.5 -30v-184q0 -39 -37 -39h-119q-16 0 -27.5 10 t-11.5 29z" />
<glyph unicode="&#xf7;" d="M164 627v204h917v-204h-917zM502 242v139q0 25 12 38t37 13h143q51 0 51 -51v-139q0 -47 -51 -47h-143q-23 0 -36 13t-13 34zM502 1073v139q0 25 12 38.5t37 13.5h143q51 0 51 -52v-139q0 -47 -51 -47h-143q-23 0 -36 13.5t-13 33.5z" />
<glyph unicode="&#xf8;" horiz-adv-x="1179" d="M76 0l112 137q-92 125 -92 414q0 225 50.5 346t156 168t285.5 47q117 0 200.5 -18.5t139.5 -61.5l55 66h121l-111 -133q90 -127 90 -414q0 -221 -49 -342t-155.5 -170t-290.5 -49q-113 0 -194 18.5t-140 61.5l-57 -70h-121zM348 553q1 -125 17 -203l409 496 q-27 37 -71 50t-115 13q-90 0 -140.5 -23.5t-75 -100t-24.5 -232.5zM406 252q27 -35 70.5 -47t111.5 -12q92 0 142 24.5t74.5 101t24.5 234.5q0 125 -14 195z" />
<glyph unicode="&#xf9;" horiz-adv-x="1214" d="M127 322v776h254v-703q0 -102 46 -142t140 -40q143 0 267 88v797h253v-1098h-206l-47 115q-197 -127 -388 -127q-153 0 -236 86t-83 248zM324 1577h207l184 -285h-149z" />
<glyph unicode="&#xfa;" horiz-adv-x="1214" d="M127 322v776h254v-703q0 -102 46 -142t140 -40q143 0 267 88v797h253v-1098h-206l-47 115q-197 -127 -388 -127q-153 0 -236 86t-83 248zM516 1292l182 285h209l-244 -285h-147z" />
<glyph unicode="&#xfb;" horiz-adv-x="1214" d="M127 322v776h254v-703q0 -102 46 -142t140 -40q143 0 267 88v797h253v-1098h-206l-47 115q-197 -127 -388 -127q-153 0 -236 86t-83 248zM285 1292l232 285h174l211 -285h-150l-153 170l-164 -170h-150z" />
<glyph unicode="&#xfc;" horiz-adv-x="1214" d="M127 322v776h254v-703q0 -102 46 -142t140 -40q143 0 267 88v797h253v-1098h-206l-47 115q-197 -127 -388 -127q-153 0 -236 86t-83 248zM291 1356v184q0 18 10 29.5t29 11.5h119q18 0 27 -11t9 -30v-184q0 -39 -36 -39h-119q-17 0 -28 10t-11 29zM692 1356v184 q0 41 39 41h119q18 0 27.5 -11t9.5 -30v-184q0 -39 -37 -39h-119q-16 0 -27.5 10t-11.5 29z" />
<glyph unicode="&#xfd;" horiz-adv-x="1144" d="M31 1098h262l199 -766q18 -55 44.5 -82t46 -33t46.5 -8l227 889h258l-352 -1381l-98 -202h-207l127 485q-250 0 -328 281zM477 1292l182 285h209l-244 -285h-147z" />
<glyph unicode="&#xfe;" horiz-adv-x="1193" d="M129 -485v2048h254v-574q66 51 150.5 87t173.5 36q193 0 292 -152.5t99 -410.5q0 -276 -94.5 -419.5t-296.5 -143.5q-82 0 -168 22.5t-156 61.5v-555h-254zM383 262q51 -31 116.5 -49t127.5 -18q217 0 217 342q0 197 -58.5 283.5t-156.5 86.5q-111 0 -246 -71v-574z" />
<glyph unicode="&#xff;" horiz-adv-x="1144" d="M31 1098h262l199 -766q18 -55 44.5 -82t46 -33t46.5 -8l227 889h258l-352 -1381l-98 -202h-207l127 485q-250 0 -328 281zM252 1356v184q0 18 10 29.5t29 11.5h119q18 0 27 -11t9 -30v-184q0 -39 -36 -39h-119q-17 0 -28 10t-11 29zM653 1356v184q0 41 39 41h119 q18 0 27.5 -11t9.5 -30v-184q0 -39 -37 -39h-119q-16 0 -27.5 10t-11.5 29z" />
<glyph unicode="&#x152;" horiz-adv-x="2142" d="M102 752q0 317 67 485t196 228.5t346 60.5q150 0 254 -25.5t176 -89.5q45 51 109.5 75.5t133.5 24.5q287 0 656 -22v-211h-572q-71 0 -110 -36t-39 -107v-269l629 -14v-199l-629 -14v-260q0 -152 147 -152h574v-211q-258 -23 -623 -26q-201 0 -284 102 q-72 -57 -174.5 -80.5t-247.5 -23.5q-219 0 -348.5 58t-195 223t-65.5 483zM356 752q0 -229 32 -342t105.5 -154t217.5 -41q141 0 215.5 41t107.5 154.5t33 341.5q0 236 -34 352.5t-107.5 155t-214.5 38.5q-137 0 -211 -39.5t-109 -155.5t-35 -351z" />
<glyph unicode="&#x153;" horiz-adv-x="1826" d="M96 551q0 225 50.5 346t156 168t285.5 47q135 0 223 -30.5t141 -102.5q51 68 133 100.5t201 32.5q164 0 258 -32.5t140.5 -119t46.5 -245.5q0 -129 -86 -193.5t-228 -64.5h-348q2 -150 68.5 -213.5t216.5 -63.5h346v-149q-213 -41 -418 -41q-223 0 -326 137 q-53 -74 -143 -105.5t-227 -31.5q-178 0 -283.5 51t-156 172t-50.5 338zM348 553q0 -164 24.5 -243t75 -104.5t140.5 -25.5q92 0 142 25.5t74.5 104.5t24.5 243q0 162 -24.5 240.5t-74.5 103.5t-142 25q-90 0 -140.5 -25t-75 -103.5t-24.5 -240.5zM1067 610h303 q68 0 102.5 30t34.5 101q0 109 -50 148t-171 39q-123 0 -171 -73t-48 -245z" />
<glyph unicode="&#x178;" horiz-adv-x="1277" d="M49 1511h262l332 -780l332 780h256l-465 -1038v-473h-254v473zM305 1683v185q0 18 10.5 29.5t28.5 11.5h119q18 0 27.5 -11.5t9.5 -29.5v-185q0 -39 -37 -38h-119q-16 0 -27.5 10t-11.5 28zM758 1683v185q0 41 39 41h116q18 0 28.5 -11.5t10.5 -29.5v-185q0 -39 -39 -38 h-116q-17 0 -28 10t-11 28z" />
<glyph unicode="&#x2c6;" horiz-adv-x="798" d="M92 1292l232 285h174l211 -285h-150l-153 170l-164 -170h-150z" />
<glyph unicode="&#x2dc;" horiz-adv-x="884" d="M78 1300q6 132 64.5 191t144.5 59q49 0 87 -14t91 -45q43 -25 69.5 -36t57.5 -11q45 0 71.5 29.5t28.5 85.5h129q-4 -125 -58 -190.5t-149 -65.5q-47 0 -88 15t-92 44q-45 25 -72.5 36t-56.5 11q-43 0 -70.5 -28.5t-29.5 -80.5h-127z" />
<glyph unicode="&#x2000;" horiz-adv-x="1012" />
<glyph unicode="&#x2001;" horiz-adv-x="2025" />
<glyph unicode="&#x2002;" horiz-adv-x="1012" />
<glyph unicode="&#x2003;" horiz-adv-x="2025" />
<glyph unicode="&#x2004;" horiz-adv-x="675" />
<glyph unicode="&#x2005;" horiz-adv-x="506" />
<glyph unicode="&#x2006;" horiz-adv-x="337" />
<glyph unicode="&#x2007;" horiz-adv-x="337" />
<glyph unicode="&#x2008;" horiz-adv-x="253" />
<glyph unicode="&#x2009;" horiz-adv-x="405" />
<glyph unicode="&#x200a;" horiz-adv-x="112" />
<glyph unicode="&#x2010;" horiz-adv-x="710" d="M47 492v204h619v-204h-619z" />
<glyph unicode="&#x2011;" horiz-adv-x="710" d="M47 492v204h619v-204h-619z" />
<glyph unicode="&#x2012;" horiz-adv-x="710" d="M47 492v204h619v-204h-619z" />
<glyph unicode="&#x2013;" horiz-adv-x="1062" d="M47 489v207h969v-207h-969z" />
<glyph unicode="&#x2014;" horiz-adv-x="1519" d="M47 489v207h1426v-207h-1426z" />
<glyph unicode="&#x2018;" horiz-adv-x="432" d="M104 1090v305q0 88 50.5 120.5t117.5 32.5q35 0 60 -4v-92q-53 0 -53 -55v-74h18q18 0 30.5 -11.5t12.5 -31.5v-190q0 -47 -43 -48h-156q-37 1 -37 48z" />
<glyph unicode="&#x2019;" horiz-adv-x="432" d="M92 1303v190q0 47 43 47h156q37 0 37 -47v-305q0 -88 -50.5 -121t-117.5 -33q-44 0 -60 4v95q53 0 54 53v74h-19q-18 0 -30.5 11t-12.5 32z" />
<glyph unicode="&#x201a;" horiz-adv-x="432" d="M92 31v190q0 47 43 47h156q37 0 37 -47v-305q0 -88 -50.5 -121t-117.5 -33q-23 0 -40.5 2.5t-19.5 2.5v92q53 0 54 55v74h-19q-18 0 -30.5 11t-12.5 32z" />
<glyph unicode="&#x201c;" horiz-adv-x="739" d="M104 1090v305q0 88 50.5 120.5t117.5 32.5q35 0 60 -4v-92q-53 0 -53 -55v-74h18q18 0 30.5 -11.5t12.5 -31.5v-190q0 -47 -43 -48h-156q-37 1 -37 48zM413 1090v305q0 88 50.5 120.5t117.5 32.5q35 0 60 -4v-92q-53 0 -53 -55v-74h18q18 0 30.5 -11.5t12.5 -31.5v-190 q0 -47 -43 -48h-156q-37 1 -37 48z" />
<glyph unicode="&#x201d;" horiz-adv-x="739" d="M92 1303v190q0 47 43 47h156q37 0 37 -47v-305q0 -88 -50.5 -121t-117.5 -33q-44 0 -60 4v95q53 0 54 53v74h-19q-18 0 -30.5 11t-12.5 32zM401 1303v190q0 47 43 47h156q37 0 37 -47v-305q0 -88 -50.5 -121t-117.5 -33q-44 0 -60 4v95q53 0 54 53v74h-19q-18 0 -30.5 11 t-12.5 32z" />
<glyph unicode="&#x201e;" horiz-adv-x="739" d="M92 31v190q0 47 43 47h156q37 0 37 -47v-305q0 -88 -50.5 -121t-117.5 -33q-23 0 -40.5 2.5t-19.5 2.5v92q53 0 54 55v74h-19q-18 0 -30.5 11t-12.5 32zM401 31v190q0 47 43 47h156q37 0 37 -47v-305q0 -88 -50.5 -121t-117.5 -33q-23 0 -40.5 2.5t-19.5 2.5v92 q53 0 54 55v74h-19q-18 0 -30.5 11t-12.5 32z" />
<glyph unicode="&#x2022;" horiz-adv-x="641" d="M156 678v205q0 33 17 52t50 19h193q72 0 71 -71v-205q0 -66 -71 -66h-193q-30 0 -48.5 17.5t-18.5 48.5z" />
<glyph unicode="&#x2026;" horiz-adv-x="1671" d="M166 37v194q0 39 39 39h145q41 0 41 -39v-194q0 -37 -41 -37h-145q-17 0 -28 10t-11 27zM723 37v194q0 39 39 39h145q41 0 41 -39v-194q0 -37 -41 -37h-145q-17 0 -28 10t-11 27zM1280 37v194q0 39 39 39h145q41 0 41 -39v-194q0 -37 -41 -37h-145q-16 0 -27.5 10 t-11.5 27z" />
<glyph unicode="&#x202f;" horiz-adv-x="405" />
<glyph unicode="&#x2039;" horiz-adv-x="751" d="M92 578l445 438l131 -127l-318 -311l324 -320l-127 -131z" />
<glyph unicode="&#x203a;" horiz-adv-x="751" d="M84 887l131 129l451 -445l-453 -444l-125 131l318 313z" />
<glyph unicode="&#x205f;" horiz-adv-x="506" />
<glyph unicode="&#x20ac;" d="M37 524v117l139 10q-2 35 -2 111v59l-137 10v113l145 14q18 221 86 345t178.5 173.5t276.5 49.5q123 0 247 -19.5t212 -46.5v-194q-61 12 -175 22t-233 10q-112 0 -179 -27.5t-105.5 -100t-53.5 -209.5l527 -13v-117l-535 -12v-61q0 -72 2 -105l533 -12v-119l-523 -12 q14 -119 53 -182.5t105 -88t174 -24.5q233 0 410 23v-195q-186 -55 -465 -55q-164 0 -270.5 43t-172 156.5t-88.5 324.5z" />
<glyph unicode="&#x2122;" horiz-adv-x="1456" d="M37 1374v125h577v-125h-213v-590h-149v590h-215zM647 784l78 715h158l161 -491l140 491h157l89 -715h-148l-43 473l-141 -473h-111l-149 471l-43 -471h-148z" />
<glyph unicode="&#x25fc;" horiz-adv-x="1095" d="M0 0v1096h1096v-1096h-1096z" />
<glyph unicode="&#xfb03;" horiz-adv-x="2115" d="M29 893v164l159 41v127q0 190 76 270t248 80q156 0 258 -33v-182q-94 8 -174 8q-88 0 -121 -42t-33 -136v-92h547v127q0 190 76 270t248 80q156 0 258 -33v-182q-94 8 -174 8q-88 0 -121 -42t-33 -136v-92h742v-1098h-254v893h-488v-893h-254v893h-547v-893h-254v893 h-159zM1724 1309v186q0 18 10.5 29.5t28.5 11.5h193q18 0 27.5 -11.5t9.5 -29.5v-186q0 -37 -37 -37h-193q-16 0 -27.5 10t-11.5 27z" />
<glyph unicode="&#xfb04;" horiz-adv-x="2228" d="M29 893v164l159 41v127q0 190 76 270t248 80q156 0 258 -33v-182q-94 8 -174 8q-88 0 -121 -42t-33 -136v-92h547v104q0 203 102.5 288t329.5 85q285 0 564 -51v-1131q0 -104 30.5 -146t98.5 -52l92 -13v-182h-150q-166 0 -245.5 85t-79.5 271v1006q-139 6 -273 6 q-121 0 -168 -42t-47 -136v-92h301v-205h-301v-893h-254v893h-547v-893h-254v893h-159z" />
</font>
</defs>
</svg>
